<svg xmlns="http://www.w3.org/2000/svg" xmlns:xlink="http://www.w3.org/1999/xlink" width="50" height="50" version="1.1" viewBox="0 0 50 50"><title>menu_normal</title><g id="页面-1" fill="none" fill-rule="evenodd" stroke="none" stroke-width="1"><g id="pad-星形图元" transform="translate(-1870.000000, -40.000000)"><g id="编组-22" transform="translate(0.000000, 40.000000)"><g id="menu_normal" transform="translate(1870.000000, 0.000000)"><rect id="Rectangle-13" width="50" height="50" x="0" y="0" fill="#000" fill-opacity=".289" opacity="0"/><g id="编组-28" transform="translate(9.000000, 9.000000)"><rect id="矩形" width="32" height="32" x="0" y="0"/><circle id="椭圆形" cx="16" cy="16" r="9.375" stroke="#626E88" stroke-width="1.25"/><g id="Group" fill="#626E88" stroke="#626E88" stroke-width=".2" transform="translate(11.000000, 13.000000)"><path id="形状结合" d="M1,2 C1.55228475,2 2,2.44771525 2,3 C2,3.55228475 1.55228475,4 1,4 C0.44771525,4 0,3.55228475 0,3 C0,2.44771525 0.44771525,2 1,2 Z M5,2 C5.55228475,2 6,2.44771525 6,3 C6,3.55228475 5.55228475,4 5,4 C4.44771525,4 4,3.55228475 4,3 C4,2.44771525 4.44771525,2 5,2 Z M9,2 C9.55228475,2 10,2.44771525 10,3 C10,3.55228475 9.55228475,4 9,4 C8.44771525,4 8,3.55228475 8,3 C8,2.44771525 8.44771525,2 9,2 Z"/></g></g></g></g></g></g></svg>
