<svg xmlns="http://www.w3.org/2000/svg" xmlns:xlink="http://www.w3.org/1999/xlink" width="43" height="26" version="1.1" viewBox="0 0 43 26"><title>编组</title><defs><filter id="filter-1" width="121.6%" height="140%" x="-10.8%" y="-20%" filterUnits="objectBoundingBox"><feOffset dx="2" dy="2" in="SourceAlpha" result="shadowOffsetOuter1"/><feColorMatrix in="shadowOffsetOuter1" result="shadowMatrixOuter1" type="matrix" values="0 0 0 0 0 0 0 0 0 0.41176792 0 0 0 0 1 0 0 0 0.2 0"/><feMerge><feMergeNode in="shadowMatrixOuter1"/><feMergeNode in="SourceGraphic"/></feMerge></filter></defs><g id="桌面版" fill="none" fill-rule="evenodd" stroke="none" stroke-width="1"><g id="显示1" transform="translate(-1472.000000, -401.000000)"><g id="控制中心" transform="translate(995.000000, 223.000000)"><g id="分组-2" transform="translate(198.000000, 60.000000)"><g id="分组-4" transform="translate(252.000000, 0.000000)"><g id="显示模式" transform="translate(10.000000, 10.000000)"><g id="扩展" transform="translate(0.000000, 84.000000)"><g id="编组" filter="url(#filter-1)" transform="translate(20.000000, 27.000000)"><rect id="矩形" width="23" height="15" x="13.5" y=".5" fill="#E1DFB6" stroke="#4F89CA" rx="2"/><circle id="椭圆形" cx="30" cy="7" r="3" fill="#4663FF"/><rect id="矩形" width="3" height="4" x="23.5" y="15.5" fill="#B6DAE1" stroke="#4F89CA"/><rect id="矩形" width="7" height="1" x="21.5" y="19.5" fill="#B6DAE1" stroke="#4F89CA"/><path id="矩形" fill="#B6DAE1" stroke="#4F89CA" d="M16,8.5 L4,8.5 C3.58578644,8.5 3.21078644,8.66789322 2.93933983,8.93933983 C2.66789322,9.21078644 2.5,9.58578644 2.5,10 L2.5,18.5 L17.5,18.5 L17.5,10 C17.5,9.58578644 17.3321068,9.21078644 17.0606602,8.93933983 C16.7892136,8.66789322 16.4142136,8.5 16,8.5 Z"/><path id="矩形" fill="#722CC2" d="M11,8 L16,8 C17.1045695,8 18,8.8954305 18,10 L18,15 L18,15 C14.1340068,15 11,11.8659932 11,8 L11,8 L11,8 Z" opacity=".6"/><rect id="矩形" width="19" height="1" x=".5" y="19.5" fill="#B6DAE1" stroke="#4F89CA"/></g></g></g></g></g></g></g></g></svg>
