<svg xmlns="http://www.w3.org/2000/svg" xmlns:xlink="http://www.w3.org/1999/xlink" width="38" height="44" version="1.1" viewBox="0 0 38 44"><title>drive-harddisk-48px</title><defs><filter id="filter-1" width="138.2%" height="132.5%" x="-19.1%" y="-16.2%" filterUnits="objectBoundingBox"><feOffset dx="0" dy="1" in="SourceAlpha" result="shadowOffsetOuter1"/><feGaussianBlur in="shadowOffsetOuter1" result="shadowBlurOuter1" stdDeviation="1"/><feColorMatrix in="shadowBlurOuter1" result="shadowMatrixOuter1" type="matrix" values="0 0 0 0 0 0 0 0 0 0 0 0 0 0 0 0 0 0 0.2 0"/><feMerge><feMergeNode in="shadowMatrixOuter1"/><feMergeNode in="SourceGraphic"/></feMerge></filter><linearGradient id="linearGradient-2" x1="102.549%" x2="-2.652%" y1="57.682%" y2="57.682%"><stop offset="0%" stop-color="#9B58FF"/><stop offset="4.571%" stop-color="#891EFF"/><stop offset="11.797%" stop-color="#A054FF"/><stop offset="85.095%" stop-color="#A664FF"/><stop offset="93.793%" stop-color="#8F36FB"/><stop offset="100%" stop-color="#9B58FF"/></linearGradient><linearGradient id="linearGradient-3" x1="100%" x2="0%" y1="56.43%" y2="56.43%"><stop offset="0%" stop-color="#FFF" stop-opacity=".5"/><stop offset="9.936%" stop-color="#FFF" stop-opacity=".9"/><stop offset="52.356%" stop-color="#FFF" stop-opacity=".7"/><stop offset="87.648%" stop-color="#FFF" stop-opacity=".9"/><stop offset="100%" stop-color="#FFF" stop-opacity=".5"/></linearGradient><path id="path-4" d="M0,31.9999433 C0,29.7908356 1.79203193,28 4.00021236,28 L29.9997876,28 C32.2090439,28 34,29.7996535 34,31.9999433 L34,36.4903342 C34,36.7718148 33.7828827,37 33.4929861,37 L0.507013887,37 C0.226997849,37 0,36.7775269 0,36.4903342 L0,31.9999433 Z"/><filter id="filter-5" width="102.9%" height="111.1%" x="-1.5%" y="-5.6%" filterUnits="objectBoundingBox"><feMorphology in="SourceAlpha" operator="erode" radius="1" result="shadowSpreadInner1"/><feOffset dx="0" dy="0" in="shadowSpreadInner1" result="shadowOffsetInner1"/><feComposite in="shadowOffsetInner1" in2="SourceAlpha" k2="-1" k3="1" operator="arithmetic" result="shadowInnerInner1"/><feColorMatrix in="shadowInnerInner1" type="matrix" values="0 0 0 0 1 0 0 0 0 1 0 0 0 0 1 0 0 0 0.5 0"/></filter><radialGradient id="radialGradient-6" cx="48.239%" cy="19.103%" r="78.654%" fx="48.239%" fy="19.103%" gradientTransform="translate(0.482392,0.191031),scale(0.205882,1.000000),rotate(90.000000),scale(1.000000,3.580713),translate(-0.482392,-0.191031)"><stop offset="0%" stop-color="#E6B3FF"/><stop offset="100%" stop-color="#72A3FF"/></radialGradient><path id="path-7" d="M0,36.5 C0,34.5670034 1.57170124,33 3.49466128,33 L30.5053387,33 C32.4353869,33 34,34.5709366 34,36.5 L34,36.5 C34,38.4329966 32.4282988,40 30.5053387,40 L3.49466128,40 C1.56461315,40 0,38.4290634 0,36.5 L0,36.5 Z"/><filter id="filter-8" width="102.9%" height="114.3%" x="-1.5%" y="-7.1%" filterUnits="objectBoundingBox"><feMorphology in="SourceAlpha" operator="erode" radius="1" result="shadowSpreadInner1"/><feOffset dx="0" dy="0" in="shadowSpreadInner1" result="shadowOffsetInner1"/><feComposite in="shadowOffsetInner1" in2="SourceAlpha" k2="-1" k3="1" operator="arithmetic" result="shadowInnerInner1"/><feColorMatrix in="shadowInnerInner1" type="matrix" values="0 0 0 0 0 0 0 0 0 0.239215686 0 0 0 0 0.611764706 0 0 0 0.2 0"/></filter><linearGradient id="linearGradient-9" x1="50%" x2="50%" y1="0%" y2="100%"><stop offset="0%" stop-color="#0174FF"/><stop offset="50.85%" stop-color="#01C2FF"/><stop offset="100%" stop-color="#0056FF"/></linearGradient></defs><g id="light" fill="none" fill-rule="evenodd" stroke="none" stroke-width="1"><g id="6" transform="translate(-1070.000000, -996.000000)"><g id="ToolTip" transform="translate(492.000000, 157.000000)"><g id="DArrowRectangle" transform="translate(196.000000, 620.000000)"><g id="Group-3" transform="translate(367.000000, 30.000000)"><g id="磁盘" transform="translate(0.000000, 178.000000)"><g id="drive-removable-media-48px" transform="translate(10.000000, 8.000000)"><g id="drive-harddisk-48px" stroke-width="1" transform="translate(7.000000, 4.000000)"><g id="Group-2" filter="url(#filter-1)"><rect id="Rectangle-1" width="34" height="37" x="0" y="0" fill="url(#linearGradient-2)" rx="6"/><g id="Rectangle-3"><use fill="url(#linearGradient-3)" fill-rule="evenodd" xlink:href="#path-4"/><use fill="#000" fill-opacity="1" filter="url(#filter-5)" xlink:href="#path-4"/></g><g id="Rectangle-1"><use fill="url(#radialGradient-6)" fill-rule="evenodd" xlink:href="#path-7"/><use fill="#000" fill-opacity="1" filter="url(#filter-8)" xlink:href="#path-7"/></g><g id="Group" fill="url(#linearGradient-9)" transform="translate(19.500000, 35.000000)"><path id="Combined-Shape" d="M11,0 C11.2761424,0 11.5,0.215752602 11.5,0.495388985 L11.5,2.50461102 C11.5,2.74780727 11.3167438,2.95007308 11.0877486,2.99201862 L11,3 C10.7238576,3 10.5,2.7842474 10.5,2.50461102 L10.5,0.495388985 C10.5,0.252192734 10.6832562,0.0499269165 10.9122514,0.00798137978 L11,0 Z M9,0 C9.27614237,0 9.5,0.215752602 9.5,0.495388985 L9.5,2.50461102 C9.5,2.74780727 9.31674383,2.95007308 9.08774863,2.99201862 L9,3 C8.72385763,3 8.5,2.7842474 8.5,2.50461102 L8.5,0.495388985 C8.5,0.252192734 8.68325617,0.0499269165 8.91225137,0.00798137978 L9,0 Z M7,0 C7.27614237,0 7.5,0.215752602 7.5,0.495388985 L7.5,2.50461102 C7.5,2.74780727 7.31674383,2.95007308 7.08774863,2.99201862 L7,3 C6.72385763,3 6.5,2.7842474 6.5,2.50461102 L6.5,0.495388985 C6.5,0.252192734 6.68325617,0.0499269165 6.91225137,0.00798137978 L7,0 Z M5,0 C5.27614237,0 5.5,0.215752602 5.5,0.495388985 L5.5,2.50461102 C5.5,2.74780727 5.31674383,2.95007308 5.08774863,2.99201862 L5,3 C4.72385763,3 4.5,2.7842474 4.5,2.50461102 L4.5,0.495388985 C4.5,0.252192734 4.68325617,0.0499269165 4.91225137,0.00798137978 L5,0 Z M3,0 C3.27614237,0 3.5,0.215752602 3.5,0.495388985 L3.5,2.50461102 C3.5,2.74780727 3.31674383,2.95007308 3.08774863,2.99201862 L3,3 C2.72385763,3 2.5,2.7842474 2.5,2.50461102 L2.5,0.495388985 C2.5,0.252192734 2.68325617,0.0499269165 2.91225137,0.00798137978 L3,0 Z M1,0 C1.27614237,0 1.5,0.215752602 1.5,0.495388985 L1.5,2.50461102 C1.5,2.74780727 1.31674383,2.95007308 1.08774863,2.99201862 L1,3 C0.723857625,3 0.5,2.7842474 0.5,2.50461102 L0.5,0.495388985 C0.5,0.252192734 0.683256173,0.0499269165 0.912251372,0.00798137978 L1,0 Z"/></g><path id="Oval" fill="#F076FF" stroke="#A50AFF" d="M4,35.5 C3.72385763,35.5 3.47385763,35.6119288 3.29289322,35.7928932 C3.11192881,35.9738576 3,36.2238576 3,36.5 C3,36.7761424 3.11192881,37.0261424 3.29289322,37.2071068 C3.47385763,37.3880712 3.72385763,37.5 4,37.5 C4.27614237,37.5 4.52614237,37.3880712 4.70710678,37.2071068 C4.88807119,37.0261424 5,36.7761424 5,36.5 C5,36.2238576 4.88807119,35.9738576 4.70710678,35.7928932 C4.52614237,35.6119288 4.27614237,35.5 4,35.5 Z"/></g></g><polygon id="Path-2" fill="#FFF" points="17 21 24 12 31 21"/><rect id="Rectangle" width="14" height="2" x="17" y="23" fill="#FFF"/></g></g></g></g></g></g></g></svg>