<svg xmlns="http://www.w3.org/2000/svg" xmlns:xlink="http://www.w3.org/1999/xlink" width="16" height="16" version="1.1" viewBox="0 0 16 16"><title>icon_Tooltip/normal</title><g id="icon_Tooltip/normal" fill="none" fill-rule="evenodd" stroke="none" stroke-width="1"><g id="tooltip-icon" fill="#626E88" transform="translate(0.000000, 3.000000)"><path id="形状结合" d="M15,1 C15.5522847,1 16,1.44771525 16,2 L16,6 C16,6.55228475 15.5522847,7 15,7 L2,7 C1.44771525,7 1,6.55228475 1,6 L14,6 C14.5522847,6 15,5.55228475 15,5 L15,5 L15,1 Z"/><path id="矩形" d="M1,0 L13,0 C13.5522847,-1.01453063e-16 14,0.44771525 14,1 L14,4 C14,4.55228475 13.5522847,5 13,5 L1,5 C0.44771525,5 6.76353751e-17,4.55228475 0,4 L0,1 C-6.76353751e-17,0.44771525 0.44771525,1.01453063e-16 1,0 Z"/><polygon id="三角形" points="9.5 7 11 10 8 10" transform="translate(9.500000, 8.500000) rotate(-180.000000) translate(-9.500000, -8.500000)"/></g></g></svg>