<svg xmlns="http://www.w3.org/2000/svg" xmlns:xlink="http://www.w3.org/1999/xlink" width="16" height="16" version="1.1" viewBox="0 0 16 16"><title>icon_Layout/normal</title><g id="icon_Layout/normal" fill="none" fill-rule="evenodd" stroke="none" stroke-width="1"><g id="Layout-icon" fill="#626E88" transform="translate(1.000000, 1.000000)"><path id="矩形备份-4" d="M6.5,-5.5 L8.5,-5.5 L8.5,-5.5 L8.5,8.5 L6.5,8.5 C5.94771525,8.5 5.5,8.05228475 5.5,7.5 L5.5,-4.5 C5.5,-5.05228475 5.94771525,-5.5 6.5,-5.5 Z" transform="translate(7.000000, 1.500000) rotate(90.000000) translate(-7.000000, -1.500000)"/><polygon id="矩形备份-8" points="1.5 2.5 5.5 2.5 5.5 9.5 1.5 9.5" transform="translate(3.500000, 6.000000) rotate(90.000000) translate(-3.500000, -6.000000)"/><rect id="矩形" width="7" height="2" x="0" y="9"/><path id="矩形" d="M0,12 L9,12 L9,14 L1,14 C0.44771525,14 6.76353751e-17,13.5522847 0,13 L0,12 L0,12 Z"/><path id="矩形" d="M10,12 L14,12 L14,13 C14,13.5522847 13.5522847,14 13,14 L10,14 L10,14 L10,12 Z"/><polygon id="矩形备份-8" points="8 4 14 4 14 11 8 11"/></g></g></svg>
