<svg xmlns="http://www.w3.org/2000/svg" xmlns:xlink="http://www.w3.org/1999/xlink" width="16" height="16" version="1.1" viewBox="0 0 16 16"><title>icon_LCDNumber/normal</title><g id="icon_LCDNumber/normal" fill="none" fill-rule="evenodd" stroke="none" stroke-width="1"><g id="lcdnumber-icon" fill="#626E88" transform="translate(1.000000, 2.000000)"><g id="8"><polygon id="矩形" points="5 2.5 6 1.5 7 2.5 7 4.516 5 5.516" transform="translate(6.000000, 3.508189) scale(-1, 1) translate(-6.000000, -3.508189)"/><polygon id="矩形" points="5 7.5 6 6.5 7 7.5 7 9.516 5 10.516" transform="translate(6.000000, 8.508189) scale(-1, -1) translate(-6.000000, -8.508189)"/><polygon id="矩形" points="0 7.5 1 6.5 2 7.5 2 9.516 0 10.516" transform="translate(1.000000, 8.508189) scale(1, -1) translate(-1.000000, -8.508189)"/><polygon id="矩形" points="0 2.5 1 1.5 2 2.5 2 4.516 0 5.516"/><polygon id="矩形" points="2.516 -.488 3.516 -1.516 4.516 -.488 4.516 2.512 3.516 3.516 2.516 2.512" transform="translate(3.516378, 1.000000) scale(-1, 1) rotate(90.000000) translate(-3.516378, -1.000000)"/><polygon id="矩形" points="2.516 9.528 3.516 8.5 4.516 9.528 4.516 12.528 3.516 13.533 2.516 12.528" transform="translate(3.516378, 11.016378) scale(-1, -1) rotate(90.000000) translate(-3.516378, -11.016378)"/><polygon id="矩形备份-2" points="2.5 4.545 3.5 2.516 4.5 4.545 4.5 7.545 3.5 9.516 2.5 7.545" transform="translate(3.500000, 6.016378) scale(-1, 1) rotate(90.000000) translate(-3.500000, -6.016378)"/></g><g id="8" transform="translate(7.000000, 0.000000)"><polygon id="矩形" points="5 2.5 6 1.5 7 2.5 7 4.516 5 5.516" transform="translate(6.000000, 3.508189) scale(-1, 1) translate(-6.000000, -3.508189)"/><polygon id="矩形" points="5 7.5 6 6.5 7 7.5 7 9.516 5 10.516" transform="translate(6.000000, 8.508189) scale(-1, -1) translate(-6.000000, -8.508189)"/><polygon id="矩形" points="0 7.5 1 6.5 2 7.5 2 9.516 0 10.516" transform="translate(1.000000, 8.508189) scale(1, -1) translate(-1.000000, -8.508189)"/><polygon id="矩形" points="0 2.5 1 1.5 2 2.5 2 4.516 0 5.516"/><polygon id="矩形" points="2.516 -.488 3.516 -1.516 4.516 -.488 4.516 2.512 3.516 3.516 2.516 2.512" transform="translate(3.516378, 1.000000) scale(-1, 1) rotate(90.000000) translate(-3.516378, -1.000000)"/><polygon id="矩形" points="2.516 9.528 3.516 8.5 4.516 9.528 4.516 12.528 3.516 13.533 2.516 12.528" transform="translate(3.516378, 11.016378) scale(-1, -1) rotate(90.000000) translate(-3.516378, -11.016378)"/><polygon id="矩形备份-2" points="2.5 4.545 3.5 2.516 4.5 4.545 4.5 7.545 3.5 9.516 2.5 7.545" transform="translate(3.500000, 6.016378) scale(-1, 1) rotate(90.000000) translate(-3.500000, -6.016378)"/></g></g></g></svg>
