<svg xmlns="http://www.w3.org/2000/svg" xmlns:xlink="http://www.w3.org/1999/xlink" width="16" height="16" version="1.1" viewBox="0 0 16 16"><title>icon_Dialog/normal</title><g id="icon_Dialog/normal" fill="none" fill-rule="evenodd" stroke="none" stroke-width="1"><g id="dialog-icon" fill="#626E88" transform="translate(1.000000, 1.000000)"><path id="形状结合" d="M13,0 C13.5522847,-1.01453063e-16 14,0.44771525 14,1 L14,13 C14,13.5522847 13.5522847,14 13,14 L1,14 C0.44771525,14 6.76353751e-17,13.5522847 0,13 L0,1 C-6.76353751e-17,0.44771525 0.44771525,1.01453063e-16 1,0 L13,0 Z M5.5,11 L1.5,11 C1.22385763,11 1,11.2238576 1,11.5 C1,11.7454599 1.17687516,11.9496084 1.41012437,11.9919443 L1.5,12 L5.5,12 C5.77614237,12 6,11.7761424 6,11.5 C6,11.2238576 5.77614237,11 5.5,11 Z M12.5,11 L8.5,11 C8.22385763,11 8,11.2238576 8,11.5 C8,11.7761424 8.22385763,12 8.5,12 L8.5,12 L12.5,12 C12.7761424,12 13,11.7761424 13,11.5 C13,11.2238576 12.7761424,11 12.5,11 L12.5,11 Z M12.5,8 L1.5,8 C1.22385763,8 1,8.22385763 1,8.5 C1,8.74545989 1.17687516,8.94960837 1.41012437,8.99194433 L1.5,9 L12.5,9 C12.7761424,9 13,8.77614237 13,8.5 C13,8.22385763 12.7761424,8 12.5,8 Z M12.5,5 L1.5,5 C1.22385763,5 1,5.22385763 1,5.5 C1,5.74545989 1.17687516,5.94960837 1.41012437,5.99194433 L1.5,6 L12.5,6 C12.7761424,6 13,5.77614237 13,5.5 C13,5.22385763 12.7761424,5 12.5,5 Z M12.5,2 L1.5,2 C1.22385763,2 1,2.22385763 1,2.5 C1,2.74545989 1.17687516,2.94960837 1.41012437,2.99194433 L1.5,3 L12.5,3 C12.7761424,3 13,2.77614237 13,2.5 C13,2.22385763 12.7761424,2 12.5,2 Z"/></g></g></svg>